<?xml version="1.0" standalone="no"?>
<!DOCTYPE svg PUBLIC "-//W3C//DTD SVG 1.1//EN" "http://www.w3.org/Graphics/SVG/1.1/DTD/svg11.dtd" >
<svg>
<metadata>
Created by FontForge 20110222 at Fri Sep  5 06:07:22 2014
 By Orthosie Webhosting
Copyright (c) 1990 Adobe Systems Incorporated.  All Rights Reserved.Helvetica is a trademark of Linotype AG and/or its subsidiaries.
</metadata>
<defs>
<font id="HelveticaNeueLT63MdExHeavy" horiz-adv-x="814" >
  <font-face 
    font-family="HelveticaNeueLT63MdExHeavy"
    font-weight="800"
    font-stretch="normal"
    units-per-em="1000"
    panose-1="2 0 9 0 0 0 0 0 0 0"
    ascent="800"
    descent="-200"
    x-height="542"
    cap-height="714"
    bbox="-200 -223 1297 999"
    underline-thickness="50"
    underline-position="-75"
    unicode-range="U+0020-2122"
  />
<missing-glyph horiz-adv-x="500" 
d="M63 0v793h375v-793h-375zM125 63h250v668h-250v-668z" />
    <glyph glyph-name=".notdef" horiz-adv-x="500" 
d="M63 0v793h375v-793h-375zM125 63h250v668h-250v-668z" />
    <glyph glyph-name=".null" horiz-adv-x="0" 
 />
    <glyph glyph-name="nonmarkingreturn" horiz-adv-x="388" 
 />
    <glyph glyph-name="space" unicode=" " horiz-adv-x="388" 
 />
    <glyph glyph-name="exclam" unicode="!" horiz-adv-x="388" 
d="M108 253l-29 461h230l-29 -461h-172zM82 0v198h224v-198h-224z" />
    <glyph glyph-name="quotedbl" unicode="&#x22;" horiz-adv-x="667" 
d="M377 320v394h148v-394h-148zM142 320v394h148v-394h-148z" />
    <glyph glyph-name="numbersign" unicode="#" horiz-adv-x="888" 
d="M225 0l24 173h-82v116h98l17 116h-82v116h98l24 173h120l-24 -173h101l24 173h120l-24 -173h82v-116h-98l-17 -116h82v-116h-98l-24 -173h-120l24 173h-101l-24 -173h-120zM486 289l17 116h-101l-17 -116h101z" />
    <glyph glyph-name="dollar" unicode="$" horiz-adv-x="888" 
d="M404 447v121q-112 0 -112 -63q0 -38 45 -46zM472 264v-132q112 2 112 66q0 32 -23.5 45t-86.5 21h-2zM416 -105v89q-179 3 -267 49q-107 55 -115 181h270q5 -43 37 -62q24 -15 75 -20v142l-120 17q-139 20 -194.5 66t-55.5 132q0 125 131 180q91 39 227 39v89h56v-89
q174 -9 261 -60q91 -53 101 -161h-264q-6 66 -98 81v-129l177 -27q109 -17 161 -60q56 -47 56 -135q0 -142 -150 -199q-91 -34 -232 -34v-89h-56z" />
    <glyph glyph-name="percent" unicode="%" horiz-adv-x="1074" 
d="M174 516q0 -96 78 -96t78 96t-78 96t-78 -96zM254 -16l455 724h112l-455 -724h-112zM744 176q0 -96 78 -96t78 96t-78 96t-78 -96zM34 516q0 192 218 192t218 -192t-218 -192t-218 192zM604 176q0 192 218 192t218 -192t-218 -192t-218 192z" />
    <glyph glyph-name="ampersand" unicode="&#x26;" horiz-adv-x="981" 
d="M539 157l-189 172q-35 -12 -56 -41.5t-21 -57.5q0 -47 35 -78q39 -34 106 -34q74 0 125 39zM994 0h-286l-64 59q-121 -81 -290 -81q-155 0 -238 70q-73 61 -73 159q0 166 204 212q-71 62 -71 127q0 86 79 133q72 42 189 42q128 0 199 -43.5t71 -122.5q0 -116 -158 -159
l138 -126q49 36 115 128l113 -79q-52 -83 -121 -147zM388 554q0 -29 60 -78q80 30 80 76q0 53 -66 53q-74 0 -74 -51z" />
    <glyph glyph-name="quotesingle" unicode="'" horiz-adv-x="388" 
d="M120 320v394h148v-394h-148z" />
    <glyph glyph-name="parenleft" unicode="(" horiz-adv-x="481" 
d="M417 -190h-146q-95 92 -145 218q-46 114 -46 234t46 234q50 126 145 218h146q-125 -197 -125 -452t125 -452z" />
    <glyph glyph-name="parenright" unicode=")" horiz-adv-x="481" 
d="M210 -190h-146q125 197 125 452t-125 452h146q95 -92 145 -218q46 -114 46 -234t-46 -234q-50 -126 -145 -218z" />
    <glyph glyph-name="asterisk" unicode="*" horiz-adv-x="464" 
d="M52 364l91 108l-134 43l39 112l128 -53l-4 140h120l-4 -140l128 53l39 -112l-134 -43l91 -108l-96 -72l-84 114l-84 -114z" />
    <glyph glyph-name="plus" unicode="+" horiz-adv-x="600" 
d="M230 323v183h140v-183h183v-140h-183v-183h-140v183h-183v140h183z" />
    <glyph glyph-name="comma" unicode="," horiz-adv-x="388" 
d="M82 0v198h224v-127q0 -247 -224 -267v82q90 16 99 114h-99z" />
    <glyph glyph-name="hyphenminus" unicode="-" horiz-adv-x="481" 
d="M61 213v154h359v-154h-359z" />
    <glyph glyph-name="period" unicode="." horiz-adv-x="388" 
d="M82 0v198h224v-198h-224z" />
    <glyph glyph-name="slash" unicode="/" horiz-adv-x="444" 
d="M-3 -22l288 758h162l-288 -758h-162z" />
    <glyph glyph-name="zero" unicode="0" horiz-adv-x="888" 
d="M444 708q212 0 317 -111q89 -95 89 -254q0 -155 -89 -249q-106 -110 -317 -110t-317 110q-89 94 -89 249q0 160 89 255q104 110 317 110zM444 554q-73 0 -118 -41q-58 -54 -58 -170q0 -112 58 -164q46 -41 118 -41q176 0 176 205q0 116 -58 170q-45 41 -118 41z" />
    <glyph glyph-name="one" unicode="1" horiz-adv-x="611" 
d="M263 0v416h-212v148h34q88 0 134 22q61 28 89 106h173v-692h-218z" />
    <glyph glyph-name="two" unicode="2" horiz-adv-x="888" 
d="M828 154v-154h-797q6 159 98 248q73 71 223 113l167 47q72 20 72 70q0 75 -133 76q-147 1 -157 -113h-246q18 267 404 267q177 0 277.5 -59t100.5 -174q0 -114 -121 -171q-53 -26 -244 -69q-150 -33 -187 -81h543z" />
    <glyph glyph-name="three" unicode="3" horiz-adv-x="888" 
d="M320 296v140h146q110 0 110 64q0 68 -131 68q-61 0 -89 -11q-37 -14 -51 -54h-246q23 205 399 205q364 0 364 -194q0 -57 -36.5 -94.5t-82.5 -40.5v-2q57 -10 96 -47q48 -46 48 -117q0 -113 -102.5 -171t-295.5 -58q-218 0 -315 65q-86 58 -93 185h238q8 -96 162 -96
t154 82q0 76 -145 76h-130z" />
    <glyph glyph-name="four" unicode="4" horiz-adv-x="888" 
d="M514 0v116h-474v156l392 420h288v-428h128v-148h-128v-116h-206zM514 264v274l-256 -274h256z" />
    <glyph glyph-name="five" unicode="5" horiz-adv-x="888" 
d="M72 302l68 390h656v-148h-503l-19 -105q83 33 214 33q161 0 253 -58q98 -61 98 -176q0 -119 -99 -185q-103 -69 -300 -69q-203 0 -300 61q-87 56 -102 174h246q17 -81 153 -81q164 0 164 98q0 43 -38 71q-44 31 -124 31q-91 0 -140 -36h-227z" />
    <glyph glyph-name="six" unicode="6" horiz-adv-x="888" 
d="M492 452q348 0 348 -231q0 -111 -92 -172q-97 -65 -282 -65q-198 0 -297 71q-121 87 -121 294q0 184 114 276q103 83 293 83q344 0 375 -211h-234q-19 63 -135 63q-99 0 -142 -49q-34 -37 -41 -112q82 53 214 53zM450 312q-150 0 -150 -94q0 -35 35 -59q41 -27 116 -27
q151 0 151 86q0 94 -152 94z" />
    <glyph glyph-name="seven" unicode="7" horiz-adv-x="833" 
d="M23 544v148h787v-190q-169 -145 -244 -237q-105 -129 -134 -265h-300q14 113 94 222q64 87 195 199l143 123h-541z" />
    <glyph glyph-name="eight" unicode="8" horiz-adv-x="888" 
d="M444 427q61 0 89 7q53 14 53 57q0 41 -39 56q-32 13 -103 13t-103 -13q-39 -15 -39 -56q0 -43 53 -57q28 -7 89 -7zM444 299q-158 0 -158 -82q0 -85 158 -85t158 85q0 82 -158 82zM444 708q194 0 285 -45q95 -47 95 -149q0 -100 -120 -136v-2q67 -13 105.5 -56t38.5 -106
q0 -230 -404 -230t-404 230q0 63 38.5 106t105.5 56v2q-120 36 -120 136q0 102 95 149q91 45 285 45z" />
    <glyph glyph-name="nine" unicode="9" horiz-adv-x="888" 
d="M58 195h234q19 -63 135 -63q99 0 143 49q33 37 40 112q-82 -53 -214 -53q-348 0 -348 231q0 111 92 172q97 65 282 65q198 0 297 -71q121 -87 121 -294q0 -184 -113 -275q-104 -84 -294 -84q-344 0 -375 211zM438 380q150 0 150 94q0 35 -35 59q-41 27 -116 27
q-151 0 -151 -86q0 -94 152 -94z" />
    <glyph glyph-name="colon" unicode=":" horiz-adv-x="388" 
d="M82 344v198h224v-198h-224zM82 0v198h224v-198h-224z" />
    <glyph glyph-name="semicolon" unicode=";" horiz-adv-x="388" 
d="M82 0v198h224v-127q0 -247 -224 -267v82q90 16 99 114h-99zM82 344v198h224v-198h-224z" />
    <glyph glyph-name="less" unicode="&#x3c;" horiz-adv-x="600" 
d="M47 192v122l506 210v-135l-340 -136l340 -136v-135z" />
    <glyph glyph-name="equal" unicode="=" horiz-adv-x="600" 
d="M47 295v140h506v-140h-506zM47 71v140h506v-140h-506z" />
    <glyph glyph-name="greater" unicode="&#x3e;" horiz-adv-x="600" 
d="M47 -18v135l340 136l-340 136v135l506 -210v-122z" />
    <glyph glyph-name="question" unicode="?" horiz-adv-x="796" 
d="M495 253h-218q1 55 16.5 83.5t56.5 49.5l109 56q58 30 58 75q0 33 -32.5 54t-81.5 21q-76 0 -111 -33q-29 -28 -33 -88h-235q15 137 101 199t270 62q169 0 262 -54q98 -57 98 -168q0 -77 -64 -124q-17 -13 -121 -62q-68 -33 -75 -71zM274 0v198h224v-198h-224z" />
    <glyph glyph-name="at" unicode="@" horiz-adv-x="800" 
d="M309 346q0 -36 20.5 -59.5t55.5 -23.5q46 0 75.5 31t29.5 75q0 37 -22 60t-59 23q-41 0 -70.5 -33t-29.5 -73zM531 538h95l-40 -216q-8 -43 -8 -47q0 -22 17 -22q31 0 57 37q31 46 31 123q0 106 -76 168q-74 59 -192 59q-129 0 -206.5 -79.5t-77.5 -204.5q0 -130 83 -206
t218 -76q114 0 196 58h113q-112 -154 -325 -154q-163 0 -279 107.5t-116 270.5q0 162 115.5 271t281.5 109q144 0 249 -83q112 -89 112 -225q0 -120 -90 -202q-79 -73 -171 -73q-53 0 -59 45h-4q-39 -45 -108 -45q-66 0 -113 49.5t-47 126.5q0 94 58.5 163.5t149.5 69.5
q82 0 128 -62z" />
    <glyph glyph-name="A" unicode="A" horiz-adv-x="852" 
d="M-28 0l310 714h291l307 -714h-255l-43 116h-312l-43 -116h-255zM526 264l-99 270h-2l-99 -270h200z" />
    <glyph glyph-name="B" unicode="B" horiz-adv-x="944" 
d="M310 560v-121h237q73 0 73 61q0 60 -73 60h-237zM310 154h256q38 0 61 19.5t23 54.5q0 71 -84 71h-256v-145zM72 0v714h591q115 0 166 -62q37 -45 37 -114q0 -50 -24.5 -90t-63.5 -54v-2q124 -28 124 -179q0 -84 -47 -138q-66 -75 -212 -75h-571z" />
    <glyph glyph-name="C" unicode="C" horiz-adv-x="963" 
d="M672 275h264q-26 -137 -110 -206q-111 -91 -342 -91q-449 0 -449 379t449 379q186 0 287 -56q127 -70 163 -241h-265q-38 137 -184 137q-198 0 -198 -219t198 -219q79 0 127 36.5t60 100.5z" />
    <glyph glyph-name="D" unicode="D" horiz-adv-x="963" 
d="M72 0v714h516q340 0 340 -357t-371 -357h-485zM310 554v-394h199q173 0 173 198q0 196 -192 196h-180z" />
    <glyph glyph-name="E" unicode="E" horiz-adv-x="815" 
d="M72 0v714h715v-154h-477v-129h447v-148h-447v-129h477v-154h-715z" />
    <glyph glyph-name="F" unicode="F" horiz-adv-x="760" 
d="M72 0v714h681v-160h-443v-123h412v-154h-412v-277h-238z" />
    <glyph glyph-name="G" unicode="G" horiz-adv-x="1000" 
d="M548 257v148h384v-405h-111l-29 74q-32 -36 -96 -61q-89 -35 -212 -35q-449 0 -449 379q0 167 108 268q119 111 340 111q175 0 287 -51q141 -65 162 -206h-269q-28 103 -170 103q-105 0 -161 -66q-51 -60 -51 -160q0 -99 51 -158q56 -66 161 -66q166 0 201 125h-146z" />
    <glyph glyph-name="H" unicode="H" horiz-adv-x="981" 
d="M671 0v299h-361v-299h-238v714h238v-255h361v255h238v-714h-238z" />
    <glyph glyph-name="I" unicode="I" horiz-adv-x="388" 
d="M75 0v714h238v-714h-238z" />
    <glyph glyph-name="J" unicode="J" horiz-adv-x="741" 
d="M9 256v30h238q0 -85 17 -117q20 -37 80 -37t82 35q17 28 17 95v452h238v-466q0 -125 -57 -187q-76 -83 -264 -83q-173 0 -254 54q-97 64 -97 224z" />
    <glyph glyph-name="K" unicode="K" horiz-adv-x="926" 
d="M72 0v714h238v-280l298 280h317l-323 -281l348 -433h-318l-221 285l-101 -84v-201h-238z" />
    <glyph glyph-name="L" unicode="L" horiz-adv-x="760" 
d="M72 0v714h238v-548h435v-166h-673z" />
    <glyph glyph-name="M" unicode="M" horiz-adv-x="1168" 
d="M72 0v714h348l163 -471h2l163 471h348v-714h-224v534h-2l-188 -534h-196l-188 534h-2v-534h-224z" />
    <glyph glyph-name="N" unicode="N" horiz-adv-x="981" 
d="M72 0v714h274l331 -447h2v447h230v-714h-263l-342 451h-2v-451h-230z" />
    <glyph glyph-name="O" unicode="O" horiz-adv-x="1000" 
d="M35 357q0 379 465 379t465 -379t-465 -379t-465 379zM287 357q0 -109 59 -166q55 -53 154 -53t155 53q58 57 58 166t-57 164t-156 55t-154 -54q-59 -57 -59 -165z" />
    <glyph glyph-name="P" unicode="P" horiz-adv-x="889" 
d="M310 566v-180h212q95 0 95 90t-95 90h-212zM72 0v714h528q263 0 263 -238q0 -101 -54 -163q-65 -75 -198 -75h-301v-238h-238z" />
    <glyph glyph-name="Q" unicode="Q" horiz-adv-x="1000" 
d="M853 -128l-147 129q-42 -10 -101 -17q-52 -6 -105 -6q-465 0 -465 379t465 379t465 -379q0 -184 -109 -278l102 -91zM547 141l-49 43l104 117l81 -71q30 48 30 127q0 109 -57 164t-156 55t-154 -54q-59 -57 -59 -165q0 -109 59 -166q55 -53 154 -53q22 0 47 3z" />
    <glyph glyph-name="R" unicode="R" horiz-adv-x="926" 
d="M310 554v-156h229q89 0 89 79q0 77 -89 77h-229zM72 0v714h572q239 0 239 -199q0 -134 -114 -163v-2q78 -26 86 -128q9 -116 15 -150q9 -47 30 -72h-261q-14 33 -14 106q0 79 -26 108q-21 24 -71 24h-218v-238h-238z" />
    <glyph glyph-name="S" unicode="S" horiz-adv-x="889" 
d="M836 505h-270q-12 83 -155 83q-124 0 -124 -70q0 -35 53 -44q122 -18 313 -49q105 -18 156 -63q57 -50 57 -140q0 -244 -412 -244q-202 0 -301 46q-120 57 -130 196h282q5 -44 36 -64q37 -24 124 -24q125 0 125 75q0 28 -24.5 41t-88.5 23l-238 36q-204 31 -204 202
q0 92 68 149q93 78 303 78q202 0 307 -52q112 -56 123 -179z" />
    <glyph glyph-name="T" unicode="T" horiz-adv-x="760" 
d="M-1 554v160h762v-160h-262v-554h-238v554h-262z" />
    <glyph glyph-name="U" unicode="U" horiz-adv-x="926" 
d="M62 252v462h238v-423q0 -84 41 -120q37 -33 122 -33t122 33q41 36 41 120v423h238v-462q0 -274 -401 -274t-401 274z" />
    <glyph glyph-name="V" unicode="V" 
d="M281 0l-318 714h261l182 -509h2l182 509h261l-318 -714h-252z" />
    <glyph glyph-name="W" unicode="W" horiz-adv-x="1148" 
d="M214 0l-214 714h230l112 -482h2l129 482h202l129 -482h2l112 482h230l-214 -714h-235l-124 465h-2l-124 -465h-235z" />
    <glyph glyph-name="X" unicode="X" horiz-adv-x="852" 
d="M-21 0l310 371l-277 343h283l131 -192l131 192h283l-277 -343l310 -371h-295l-152 216l-152 -216h-295z" />
    <glyph glyph-name="Y" unicode="Y" 
d="M288 0v225l-317 489h276l160 -303l160 303h276l-317 -489v-225h-238z" />
    <glyph glyph-name="Z" unicode="Z" 
d="M18 0v137l450 417h-419v160h738v-140l-447 -414h440v-160h-762z" />
    <glyph glyph-name="bracketleft" unicode="[" horiz-adv-x="481" 
d="M72 -190v904h384v-154h-172v-596h172v-154h-384z" />
    <glyph glyph-name="backslash" unicode="\" horiz-adv-x="444" 
d="M288 -22l-288 758h156l288 -758h-156z" />
    <glyph glyph-name="bracketright" unicode="]" horiz-adv-x="481" 
d="M25 -190v154h172v596h-172v154h384v-904h-384z" />
    <glyph glyph-name="asciicircum" unicode="^" horiz-adv-x="600" 
d="M47 327l175 365h156l175 -365h-143l-110 237l-110 -237h-143z" />
    <glyph glyph-name="underscore" unicode="_" horiz-adv-x="500" 
d="M0 -125v50h500v-50h-500z" />
    <glyph glyph-name="grave" unicode="`" horiz-adv-x="278" 
d="M65 604l-149 140h258l91 -140h-200z" />
    <glyph glyph-name="a" unicode="a" 
d="M276 372h-212q14 110 115 152q75 32 224 32q166 0 246 -35q99 -43 99 -149v-274q0 -58 22 -98h-212q-9 21 -11 50q-76 -72 -255 -72q-265 0 -265 169q0 89 60 131q55 38 174 46l211 14q33 2 45 8q19 9 19 36q0 58 -134 58q-111 0 -126 -68zM542 220v33q-28 -9 -81 -15
l-143 -17q-61 -7 -61 -55q0 -66 95 -66q91 0 140.5 32t49.5 88z" />
    <glyph glyph-name="b" unicode="b" 
d="M56 0v730h212v-257h2q57 83 202 83t232 -83q83 -79 83 -201q0 -139 -85.5 -216.5t-231.5 -77.5q-136 0 -206 86h-2v-64h-206zM268 270q0 -64 39 -101t112 -37q150 0 150 138t-150 138q-73 0 -112 -37t-39 -101z" />
    <glyph glyph-name="c" unicode="c" 
d="M563 221h224q-25 -121 -110 -180q-92 -63 -265 -63q-380 0 -380 293q0 144 103 220q98 73 277 73q339 0 365 -233h-218q-16 93 -144 93q-75 0 -117 -40t-42 -113t41.5 -113t118.5 -40q126 0 147 103z" />
    <glyph glyph-name="d" unicode="d" 
d="M552 0v64h-2q-70 -86 -206 -86q-146 0 -230 77q-87 78 -87 217q0 122 83 201q87 83 232 83t202 -83h2v257h212v-730h-206zM546 270q0 64 -39 101t-112 37q-150 0 -150 -138t150 -138q73 0 112 37t39 101z" />
    <glyph glyph-name="e" unicode="e" 
d="M250 331h314q-22 111 -157 111t-157 -111zM548 161h224q-22 -77 -103 -125q-97 -58 -257 -58q-380 0 -380 294q0 141 103 218q98 74 271 74q179 0 275 -79q101 -83 101 -248v-16h-532q19 -121 170 -121q80 0 128 61z" />
    <glyph glyph-name="f" unicode="f" horiz-adv-x="463" 
d="M0 402v140h111v46q0 82 41 116q50 40 187 40q58 0 124 -8v-120h-95q-27 0 -36 -8t-9 -33v-33h140v-140h-140v-402h-212v402h-111z" />
    <glyph glyph-name="g" unicode="g" horiz-adv-x="833" 
d="M571 473v69h206v-493q0 -137 -83.5 -197t-277.5 -60q-174 0 -258 37q-98 43 -114 149h234q13 -64 129 -64q88 0 123 32.5t35 108.5v38q-68 -69 -217 -69q-164 0 -247 78q-74 69 -74 188q0 114 79 187q86 79 242 79q159 0 221 -83h2zM251 287q0 -57 38 -91q41 -38 118 -38
q158 0 158 127q0 60 -38 94q-41 37 -120 37q-77 0 -118 -38q-38 -34 -38 -91z" />
    <glyph glyph-name="h" unicode="h" horiz-adv-x="778" 
d="M56 0v732h212v-268h2q64 92 222 92q104 0 165 -49q65 -52 65 -150v-357h-212v293q0 103 -110 103q-59 0 -94 -32q-38 -34 -38 -98v-266h-212z" />
    <glyph glyph-name="i" unicode="i" horiz-adv-x="332" 
d="M60 0v542h212v-542h-212zM60 604v128h212v-128h-212z" />
    <glyph glyph-name="j" unicode="j" horiz-adv-x="352" 
d="M-27 -193v145h25q51 0 64 8q18 13 18 62v520h212v-535q0 -119 -43 -161t-170 -42q-22 0 -106 3zM80 604v128h212v-128h-212z" />
    <glyph glyph-name="k" unicode="k" horiz-adv-x="778" 
d="M56 0v732h212v-379l212 189h287l-250 -201l274 -341h-288l-154 205l-81 -65v-140h-212z" />
    <glyph glyph-name="l" unicode="l" horiz-adv-x="332" 
d="M60 0v732h212v-732h-212z" />
    <glyph glyph-name="m" unicode="m" horiz-adv-x="1168" 
d="M56 0v542h206v-79h2q95 93 218 93q131 0 192 -93q95 93 228 93q93 0 147 -41q63 -48 63 -143v-372h-212v316q0 80 -91 80q-57 0 -88 -25.5t-31 -67.5v-303h-212v316q0 80 -91 80q-57 0 -88 -25.5t-31 -67.5v-303h-212z" />
    <glyph glyph-name="n" unicode="n" horiz-adv-x="778" 
d="M56 0v542h206v-78h2q75 92 228 92q104 0 165 -49q65 -52 65 -150v-357h-212v293q0 103 -110 103q-59 0 -94 -32q-38 -34 -38 -98v-266h-212z" />
    <glyph glyph-name="o" unicode="o" 
d="M407 424q-73 0 -114.5 -39t-41.5 -114t41.5 -114t114.5 -39q74 0 115 39t41 114t-41 114t-115 39zM27 271q0 143 98 218t282 75t282 -75t98 -218t-98 -218t-282 -75t-282 75t-98 218z" />
    <glyph glyph-name="p" unicode="p" 
d="M56 -196v738h206v-72h2q70 86 206 86q146 0 231 -76q86 -79 86 -218q0 -122 -83 -201q-87 -83 -232 -83q-138 0 -202 71h-2v-245h-212zM268 270q0 -64 39 -101t112 -37q150 0 150 138t-150 138q-73 0 -112 -37t-39 -101z" />
    <glyph glyph-name="q" unicode="q" 
d="M546 -196v245h-2q-64 -71 -208 -71q-145 0 -229 82q-80 78 -80 202q0 135 89 214.5t234 79.5q130 0 200 -86h2v72h206v-738h-212zM546 270q0 64 -39 101t-112 37q-150 0 -150 -138t150 -138q73 0 112 37t39 101z" />
    <glyph glyph-name="r" unicode="r" horiz-adv-x="574" 
d="M60 0v542h209v-107h2q32 55 91 88t130 33q41 0 72 -6v-198q-49 18 -117 18q-175 0 -175 -160v-210h-212z" />
    <glyph glyph-name="s" unicode="s" horiz-adv-x="759" 
d="M27 169h246q9 -63 124 -63q97 0 97 48q0 21 -16 29.5t-57 13.5l-189 23q-187 23 -187 151q0 105 88 152q79 41 241 41q324 0 338 -180h-238q-5 58 -114 58q-97 0 -97 -51q0 -31 68 -38l183 -20q113 -12 165.5 -50.5t52.5 -116.5q0 -188 -347 -188q-352 0 -358 191z" />
    <glyph glyph-name="t" unicode="t" horiz-adv-x="500" 
d="M0 402v140h111v172h212v-172h140v-140h-140v-218q0 -39 17 -49q12 -7 52 -7q19 0 75 2v-132q-72 -10 -161 -10q-106 0 -149 32q-46 33 -46 119v263h-111z" />
    <glyph glyph-name="u" unicode="u" horiz-adv-x="778" 
d="M56 197v345h212v-280q0 -124 110 -124q59 0 95.5 33t36.5 97v274h212v-542h-206v70h-2q-75 -92 -228 -92q-230 0 -230 219z" />
    <glyph glyph-name="v" unicode="v" horiz-adv-x="722" 
d="M240 0l-250 542h241l130 -357l130 357h241l-250 -542h-242z" />
    <glyph glyph-name="w" unicode="w" horiz-adv-x="1130" 
d="M198 0l-196 542h230l112 -356h2l123 356h192l123 -356h2l112 356h230l-196 -542h-252l-114 319h-2l-114 -319h-252z" />
    <glyph glyph-name="x" unicode="x" horiz-adv-x="778" 
d="M-6 0l250 281l-229 261h263l111 -157l111 157h263l-228 -261l249 -281h-273l-122 167l-122 -167h-273z" />
    <glyph glyph-name="y" unicode="y" horiz-adv-x="685" 
d="M64 -190v134h51q78 0 97 39l24 48l-255 511h230l137 -322l132 322h224l-288 -610q-33 -70 -67 -95q-44 -33 -136 -33q-67 0 -149 6z" />
    <glyph glyph-name="z" unicode="z" horiz-adv-x="667" 
d="M22 0v128l326 264v2h-309v148h596v-128l-316 -266h326v-148h-623z" />
    <glyph glyph-name="braceleft" unicode="{" horiz-adv-x="481" 
d="M28 195v134q30 0 55 10q39 15 39 49v188q0 138 150 138h175v-128h-55q-58 0 -58 -62v-169q0 -44 -34 -68q-29 -21 -74 -24v-2q108 -9 108 -101v-160q0 -62 58 -62h55v-128h-175q-150 0 -150 138v179q0 39 -39 57q-25 11 -55 11z" />
    <glyph glyph-name="bar" unicode="|" horiz-adv-x="222" 
d="M37 -22v758h148v-758h-148z" />
    <glyph glyph-name="braceright" unicode="}" horiz-adv-x="481" 
d="M453 329v-134q-30 0 -55 -10q-39 -15 -39 -49v-188q0 -138 -150 -138h-175v128h55q58 0 58 62v169q0 44 34 68q29 21 74 24v2q-108 9 -108 101v160q0 62 -58 62h-55v128h175q150 0 150 -138v-179q0 -39 39 -57q25 -11 55 -11z" />
    <glyph glyph-name="asciitilde" unicode="~" horiz-adv-x="600" 
d="M105 145v0l-36 126q45 86 125 86q43 0 111 -32q76 -36 102 -36q41 0 88 72l36 -126q-30 -42 -50 -59q-34 -27 -75 -27q-42 0 -102 33q-63 35 -115 35q-51 0 -84 -72z" />
    <glyph glyph-name="Euro" horiz-adv-x="888" 
d="M768 504q-12 9 -30.5 19.5t-42.5 18.5q-28 10 -59 14t-59 4q-34 0 -66 -6t-57 -21q-14 -8 -30.5 -24t-28.5 -44h355l-52 -86h-318q-3 -18 -2 -34.5t5 -33.5h276l-52 -86h-203q5 -15 17.5 -33t37.5 -33t56 -21t62 -6q9 0 25 1t37 4t45 9.5t48 18.5q25 12 49 30t45 43v-190
q-40 -23 -91 -39q-45 -14 -93 -19.5t-91 -5.5q-79 0 -148 17t-121 54q-15 10 -31.5 25t-32.5 36t-30 48t-23 61h-135l52 86h69q-6 32 -1 68h-120l52 86h81q16 60 48 102.5t74 71.5q61 42 132.5 55.5t141.5 13.5q81 0 131.5 -9.5t65.5 -13.5q31 -8 55 -18.5t45 -22.5z" />
    <glyph glyph-name="Euro" unicode="&#x20ac;" horiz-adv-x="888" 
d="M768 504q-12 9 -30.5 19.5t-42.5 18.5q-28 10 -59 14t-59 4q-34 0 -66 -6t-57 -21q-14 -8 -30.5 -24t-28.5 -44h355l-52 -86h-318q-3 -18 -2 -34.5t5 -33.5h276l-52 -86h-203q5 -15 17.5 -33t37.5 -33t56 -21t62 -6q9 0 25 1t37 4t45 9.5t48 18.5q25 12 49 30t45 43v-190
q-40 -23 -91 -39q-45 -14 -93 -19.5t-91 -5.5q-79 0 -148 17t-121 54q-15 10 -31.5 25t-32.5 36t-30 48t-23 61h-135l52 86h69q-6 32 -1 68h-120l52 86h81q16 60 48 102.5t74 71.5q61 42 132.5 55.5t141.5 13.5q81 0 131.5 -9.5t65.5 -13.5q31 -8 55 -18.5t45 -22.5z" />
    <glyph glyph-name="Zcaron" 
d="M18 0v137l450 417h-419v160h738v-140l-447 -414h440v-160h-762zM259 776l-149 140h234l71 -77l71 77h218l-149 -140h-296z" />
    <glyph glyph-name="Zcaron" unicode="&#x17d;" 
d="M18 0v137l450 417h-419v160h738v-140l-447 -414h440v-160h-762zM259 776l-149 140h234l71 -77l71 77h218l-149 -140h-296z" />
    <glyph glyph-name="zcaron" horiz-adv-x="667" 
d="M22 0v128l326 264v2h-309v148h596v-128l-316 -266h326v-148h-623zM186 604l-149 140h234l71 -77l71 77h218l-149 -140h-296z" />
    <glyph glyph-name="zcaron" unicode="&#x17e;" horiz-adv-x="667" 
d="M22 0v128l326 264v2h-309v148h596v-128l-316 -266h326v-148h-623zM186 604l-149 140h234l71 -77l71 77h218l-149 -140h-296z" />
    <glyph glyph-name="nonbreakingspace" unicode="&#xa0;" horiz-adv-x="388" 
 />
    <glyph glyph-name="exclamdown" unicode="&#xa1;" horiz-adv-x="388" 
d="M79 -172l29 461h172l29 -461h-230zM82 344v198h224v-198h-224z" />
    <glyph glyph-name="cent" unicode="&#xa2;" horiz-adv-x="888" 
d="M430 120v303q-128 -17 -128 -152q0 -134 128 -151zM430 -128v108q-352 9 -352 291q0 281 352 292v91h56v-91q312 -8 337 -232h-218q-14 84 -119 92v-303q105 9 123 101h224q-20 -117 -97 -174q-85 -63 -250 -67v-108h-56z" />
    <glyph glyph-name="sterling" unicode="&#xa3;" horiz-adv-x="888" 
d="M74 301v104h57q-24 51 -24 95q0 103 102 158q93 50 251 50q178 0 264 -60q90 -63 90 -199h-246q0 105 -109 105q-46 0 -76 -21t-30 -53q0 -23 16 -75h158v-104h-151q-7 -84 -85 -135l2 -2q47 25 112 25q31 0 99.5 -12.5t103.5 -12.5q91 0 164 60l64 -165
q-104 -75 -232 -75q-50 0 -158.5 22.5t-145.5 22.5q-70 0 -153 -45l-87 149q92 54 92 125q0 29 -2 43h-76z" />
    <glyph glyph-name="currency" unicode="&#xa4;" horiz-adv-x="888" 
d="M444 486q-57 0 -92.5 -38.5t-35.5 -101.5t35.5 -101.5t92.5 -38.5t92.5 38.5t35.5 101.5q0 60 -36 100t-92 40zM161 134l61 61q-46 66 -46 151q0 86 47 151l-62 60l73 73l60 -62q64 46 150 46t150 -46l60 62l73 -73l-62 -60q47 -65 47 -151q0 -87 -48 -151l63 -61
l-73 -72l-60 63q-63 -47 -150 -47t-150 47l-60 -63z" />
    <glyph glyph-name="yen" unicode="&#xa5;" horiz-adv-x="888" 
d="M338 0v97h-216v104h216v44l-23 33h-193v104h120l-221 310h263l160 -292l160 292h263l-220 -310h119v-104h-193l-23 -33v-44h216v-104h-216v-97h-212z" />
    <glyph glyph-name="brokenbar" unicode="&#xa6;" horiz-adv-x="222" 
d="M37 -22v296h148v-296h-148zM37 440v296h148v-296h-148z" />
    <glyph glyph-name="section" unicode="&#xa7;" horiz-adv-x="888" 
d="M525 31l-277 65q-216 51 -216 203q0 113 103 158q-36 33 -36 91q0 72 62 122q84 66 259 66q338 0 363 -213h-227q-1 40 -32 56.5t-101 16.5q-106 0 -106 -50q0 -29 84 -46l226 -47q122 -25 175.5 -74t53.5 -128q0 -100 -95 -151q46 -40 46 -93q0 -203 -349 -203
q-355 0 -380 220h227q8 -50 53 -70q36 -16 111 -16q47 0 77.5 13.5t30.5 36.5q0 31 -52 43zM580 291l-318 81q-32 -25 -32 -55q0 -43 65 -59l339 -86q24 25 24 56q0 43 -78 63z" />
    <glyph glyph-name="dieresis" unicode="&#xa8;" horiz-adv-x="278" 
d="M-120 595v128h212v-128h-212zM186 595v128h212v-128h-212z" />
    <glyph glyph-name="copyright" unicode="&#xa9;" horiz-adv-x="800" 
d="M149 357q0 -121 76 -197q72 -72 175 -72q102 0 174 72q77 76 77 197t-77 198q-72 71 -174 71q-103 0 -175 -71q-76 -76 -76 -198zM483 298h114q-11 -76 -61.5 -118t-119.5 -42q-94 0 -152.5 62.5t-58.5 155.5q0 96 56 157.5t149 61.5q73 0 122 -40t61 -116h-110
q-14 60 -73 60q-45 0 -70 -32.5t-25 -88.5t26.5 -90t71.5 -34q63 0 70 64zM21 357q0 157 111 268t268 111t268 -111t111 -268t-111 -268t-268 -111t-268 111t-111 268z" />
    <glyph glyph-name="ordfeminine" unicode="&#xaa;" horiz-adv-x="529" 
d="M518 358h-151q-6 15 -6 30q-62 -42 -165 -42q-95 0 -140 27t-45 86q0 100 167 108l125 6q43 2 43 23q0 32 -80 32q-64 0 -75 -36h-155q11 75 89 101q47 15 144 15q116 0 169 -22q65 -28 65 -96v-173q0 -35 15 -59zM349 499v14q-18 -2 -52 -7l-78 -11q-40 -6 -40 -31
q0 -13 16 -22.5t39 -9.5q53 0 84 18.5t31 48.5z" />
    <glyph glyph-name="guillemotleft" unicode="&#xab;" horiz-adv-x="648" 
d="M344 202v176l206 152v-148l-122 -92l122 -92v-148zM84 202v176l206 152v-148l-122 -92l122 -92v-148z" />
    <glyph glyph-name="logicalnot" unicode="&#xac;" horiz-adv-x="600" 
d="M413 108v187h-366v140h506v-327h-140z" />
    <glyph glyph-name="hyphen" unicode="&#xad;" horiz-adv-x="481" 
d="M61 213v154h359v-154h-359z" />
    <glyph glyph-name="registered" unicode="&#xae;" horiz-adv-x="800" 
d="M21 357q0 157 111 268t268 111t268 -111t111 -268t-111 -268t-268 -111t-268 111t-111 268zM149 357q0 -121 76 -197q72 -72 175 -72q102 0 174 72q77 76 77 197t-77 198q-72 71 -174 71q-103 0 -175 -71q-76 -76 -76 -198zM254 177v386h134q87 0 128 -26q46 -30 46 -99
q0 -93 -78 -105l89 -156h-107l-83 146h-33v-146h-96zM350 397h50q58 0 58 46t-58 46h-50v-92z" />
    <glyph glyph-name="macron" unicode="&#xaf;" horiz-adv-x="278" 
d="M-124 620v116h526v-116h-526z" />
    <glyph glyph-name="degree" unicode="&#xb0;" horiz-adv-x="400" 
d="M40 548q0 66 47 113t113 47t113 -47t47 -113t-47 -113t-113 -47t-113 47t-47 113zM114 548q0 -35 25.5 -60.5t60.5 -25.5t60.5 25.5t25.5 60.5t-25.5 60.5t-60.5 25.5t-60.5 -25.5t-25.5 -60.5z" />
    <glyph glyph-name="plusminus" unicode="&#xb1;" horiz-adv-x="600" 
d="M230 418v88h140v-88h183v-140h-183v-88h-140v88h-183v140h183zM47 0v140h506v-140h-506z" />
    <glyph glyph-name="twosuperior" unicode="&#xb2;" horiz-adv-x="577" 
d="M538 386v-104h-524q4 88 64 139q48 42 145 67l108 28q47 12 47 42q0 45 -80 46q-90 1 -96 -68h-180q7 96 82 137q65 35 194 35q260 0 260 -151q0 -100 -155 -127q-60 -10 -121.5 -21t-82.5 -21v-2h339z" />
    <glyph glyph-name="threesuperior" unicode="&#xb3;" horiz-adv-x="577" 
d="M198 446v96h89q71 0 71 34q0 36 -79 36q-70 0 -85 -38h-178q11 106 161 127q46 7 113 7q133 0 190.5 -29t57.5 -95q0 -36 -26 -58.5t-65 -24.5v-2q47 -4 77 -27q33 -27 33 -71q0 -131 -275 -131q-153 0 -217 35q-57 31 -62 105h174q7 -36 100 -36q94 0 94 31q0 41 -94 41
h-79z" />
    <glyph glyph-name="acute" unicode="&#xb4;" horiz-adv-x="278" 
d="M13 604l91 140h258l-149 -140h-200z" />
    <glyph glyph-name="mu" unicode="&#xb5;" horiz-adv-x="778" 
d="M516 0v70h-2q-66 -92 -151 -92q-62 0 -93 36h-2v-210h-212v738h212v-280q0 -124 110 -124q59 0 95.5 33t36.5 97v274h212v-542h-206z" />
    <glyph glyph-name="paragraph" unicode="&#xb6;" horiz-adv-x="720" 
d="M256 -174v504q-110 0 -171.5 48.5t-61.5 140.5q0 111 76 158q60 37 180 37h364v-888h-140v778h-107v-778h-140z" />
    <glyph glyph-name="periodcentered" unicode="&#xb7;" horiz-adv-x="388" 
d="M75 260q0 50 35 84.5t84 34.5q50 0 84.5 -34.5t34.5 -84.5q0 -49 -34.5 -84t-84.5 -35q-49 0 -84 35t-35 84z" />
    <glyph glyph-name="periodcentered" unicode="&#x2219;" horiz-adv-x="388" 
d="M75 260q0 50 35 84.5t84 34.5q50 0 84.5 -34.5t34.5 -84.5q0 -49 -34.5 -84t-84.5 -35q-49 0 -84 35t-35 84z" />
    <glyph glyph-name="cedilla" unicode="&#xb8;" horiz-adv-x="278" 
d="M-9 -204l18 51q49 -14 81 -14q47 0 47 31q0 25 -39 25q-15 0 -36 -7l-25 20l56 83h69l-27 -43q22 2 43 2q36 0 65 -18q34 -22 34 -61q0 -88 -140 -88q-75 0 -146 19z" />
    <glyph glyph-name="onesuperior" unicode="&#xb9;" horiz-adv-x="397" 
d="M161 282v242h-128v104h22q55 0 85 11q42 16 60 59h123v-416h-162z" />
    <glyph glyph-name="ordmasculine" unicode="&#xba;" horiz-adv-x="529" 
d="M169 527q0 -85 96 -85q95 0 95 85t-95 85q-96 0 -96 -85zM1 527q0 181 264 181q263 0 263 -181t-263 -181q-264 0 -264 181z" />
    <glyph glyph-name="guillemotright" unicode="&#xbb;" horiz-adv-x="648" 
d="M98 50v148l122 92l-122 92v148l206 -152v-176zM358 50v148l122 92l-122 92v148l206 -152v-176z" />
    <glyph glyph-name="onequarter" unicode="&#xbc;" horiz-adv-x="1333" 
d="M983 0v55h-302v108l255 253h201v-239h70v-122h-70v-55h-154zM983 177v155l-161 -155h161zM293 -16l455 724h112l-455 -724h-112zM191 282v242h-128v104h22q55 0 85 11q42 16 60 59h123v-416h-162z" />
    <glyph glyph-name="onehalf" unicode="&#xbd;" horiz-adv-x="1333" 
d="M278 -16l455 724h112l-455 -724h-112zM191 282v242h-128v104h22q55 0 85 11q42 16 60 59h123v-416h-162zM1214 104v-104h-524q4 88 64 139q48 42 145 67l108 28q47 12 47 42q0 45 -80 46q-90 1 -96 -68h-180q7 96 82 137q65 35 194 35q260 0 260 -151q0 -100 -155 -127
q-60 -10 -121.5 -21t-82.5 -21v-2h339z" />
    <glyph glyph-name="threequarters" unicode="&#xbe;" horiz-adv-x="1333" 
d="M1073 0v55h-302v108l255 253h201v-239h70v-122h-70v-55h-154zM1073 177v155l-161 -155h161zM218 446v96h89q71 0 71 34q0 36 -79 36q-70 0 -85 -38h-178q11 106 161 127q46 7 113 7q133 0 190.5 -29t57.5 -95q0 -36 -26 -58.5t-65 -24.5v-2q47 -4 77 -27q33 -27 33 -71
q0 -131 -275 -131q-153 0 -217 35q-57 31 -62 105h174q7 -36 100 -36q94 0 94 31q0 41 -94 41h-79zM423 -16l455 724h112l-455 -724h-112z" />
    <glyph glyph-name="questiondown" unicode="&#xbf;" horiz-adv-x="796" 
d="M301 289h218q-1 -55 -16.5 -83.5t-56.5 -49.5l-109 -56q-58 -30 -58 -75q0 -33 32.5 -54t81.5 -21q76 0 111 33q29 28 33 88h235q-15 -137 -101 -199t-270 -62q-169 0 -262 54q-98 57 -98 168q0 77 64 124q17 13 121 62q68 33 75 71zM298 344v198h224v-198h-224z" />
    <glyph glyph-name="Agrave" unicode="&#xc0;" horiz-adv-x="852" 
d="M-28 0l310 714h291l307 -714h-255l-43 116h-312l-43 -116h-255zM526 264l-99 270h-2l-99 -270h200zM352 761l-149 140h258l91 -140h-200z" />
    <glyph glyph-name="Aacute" unicode="&#xc1;" horiz-adv-x="852" 
d="M-28 0l310 714h291l307 -714h-255l-43 116h-312l-43 -116h-255zM526 264l-99 270h-2l-99 -270h200zM300 761l91 140h258l-149 -140h-200z" />
    <glyph glyph-name="Acircumflex" unicode="&#xc2;" horiz-adv-x="852" 
d="M-28 0l310 714h291l307 -714h-255l-43 116h-312l-43 -116h-255zM526 264l-99 270h-2l-99 -270h200zM129 761l149 140h296l149 -140h-234l-71 77l-71 -77h-218z" />
    <glyph glyph-name="Atilde" unicode="&#xc3;" horiz-adv-x="852" 
d="M-28 0l310 714h291l307 -714h-255l-43 116h-312l-43 -116h-255zM526 264l-99 270h-2l-99 -270h200zM254 756v0h-96q34 145 162 145q28 0 71 -9l139 -29q24 -5 28 -5q29 0 43 35h93q-19 -148 -141 -148q-38 0 -193 35q-53 12 -60 12q-36 0 -46 -36z" />
    <glyph glyph-name="Adieresis" unicode="&#xc4;" horiz-adv-x="852" 
d="M-28 0l310 714h291l307 -714h-255l-43 116h-312l-43 -116h-255zM526 264l-99 270h-2l-99 -270h200zM167 752v128h212v-128h-212zM473 752v128h212v-128h-212z" />
    <glyph glyph-name="Aring" unicode="&#xc5;" horiz-adv-x="852" 
d="M-28 0l310 714h291l307 -714h-255l-43 116h-312l-43 -116h-255zM526 264l-99 270h-2l-99 -270h200zM294 867q0 55 38.5 93.5t93.5 38.5t93.5 -38.5t38.5 -93.5t-38.5 -93.5t-93.5 -38.5t-93.5 38.5t-38.5 93.5zM368 867q0 -24 17 -41t41 -17t41 17t17 41t-17 41t-41 17
t-41 -17t-17 -41z" />
    <glyph glyph-name="AE" unicode="&#xc6;" horiz-adv-x="1148" 
d="M-17 0l359 714h774v-154h-372v-129h358v-148h-358v-129h376v-154h-588v135h-237l-60 -135h-252zM532 283v283h-46l-125 -283h171z" />
    <glyph glyph-name="Ccedilla" unicode="&#xc7;" horiz-adv-x="963" 
d="M672 275h264q-26 -135 -107 -203q-107 -90 -329 -93l-22 -37q22 2 43 2q36 0 65 -18q34 -22 34 -61q0 -88 -140 -88q-75 0 -146 19l18 51q49 -14 81 -14q47 0 47 31q0 25 -39 25q-15 0 -36 -7l-25 20l52 78q-397 21 -397 377q0 379 449 379q186 0 287 -56
q127 -70 163 -241h-265q-38 137 -184 137q-198 0 -198 -219t198 -219q79 0 127 36.5t60 100.5z" />
    <glyph glyph-name="Egrave" unicode="&#xc8;" horiz-adv-x="815" 
d="M72 0v714h715v-154h-477v-129h447v-148h-447v-129h477v-154h-715zM334 776l-149 140h258l91 -140h-200z" />
    <glyph glyph-name="Eacute" unicode="&#xc9;" horiz-adv-x="815" 
d="M72 0v714h715v-154h-477v-129h447v-148h-447v-129h477v-154h-715zM282 776l91 140h258l-149 -140h-200z" />
    <glyph glyph-name="Ecircumflex" unicode="&#xca;" horiz-adv-x="815" 
d="M72 0v714h715v-154h-477v-129h447v-148h-447v-129h477v-154h-715zM111 776l149 140h296l149 -140h-234l-71 77l-71 -77h-218z" />
    <glyph glyph-name="Edieresis" unicode="&#xcb;" horiz-adv-x="815" 
d="M72 0v714h715v-154h-477v-129h447v-148h-447v-129h477v-154h-715zM149 767v128h212v-128h-212zM455 767v128h212v-128h-212z" />
    <glyph glyph-name="Igrave" unicode="&#xcc;" horiz-adv-x="388" 
d="M75 0v714h238v-714h-238zM120 776l-149 140h258l91 -140h-200z" />
    <glyph glyph-name="Iacute" unicode="&#xcd;" horiz-adv-x="388" 
d="M75 0v714h238v-714h-238zM68 776l91 140h258l-149 -140h-200z" />
    <glyph glyph-name="Icircumflex" unicode="&#xce;" horiz-adv-x="388" 
d="M75 0v714h238v-714h-238zM-103 776l149 140h296l149 -140h-234l-71 77l-71 -77h-218z" />
    <glyph glyph-name="Idieresis" unicode="&#xcf;" horiz-adv-x="388" 
d="M75 0v714h238v-714h-238zM-65 767v128h212v-128h-212zM241 767v128h212v-128h-212z" />
    <glyph glyph-name="Eth" unicode="&#xd0;" horiz-adv-x="963" 
d="M72 0v291h-72v134h72v289h516q340 0 340 -357t-371 -357h-485zM466 425v-134h-156v-131h199q173 0 173 198q0 196 -192 196h-180v-129h156z" />
    <glyph glyph-name="Ntilde" unicode="&#xd1;" horiz-adv-x="981" 
d="M72 0v714h274l331 -447h2v447h230v-714h-263l-342 451h-2v-451h-230zM319 771v0h-96q34 145 162 145q28 0 71 -9l139 -29q24 -5 28 -5q29 0 43 35h93q-19 -148 -141 -148q-38 0 -193 35q-53 12 -60 12q-36 0 -46 -36z" />
    <glyph glyph-name="Ograve" unicode="&#xd2;" horiz-adv-x="1000" 
d="M35 357q0 379 465 379t465 -379t-465 -379t-465 379zM287 357q0 -109 59 -166q55 -53 154 -53t155 53q58 57 58 166t-57 164t-156 55t-154 -54q-59 -57 -59 -165zM426 776l-149 140h258l91 -140h-200z" />
    <glyph glyph-name="Oacute" unicode="&#xd3;" horiz-adv-x="1000" 
d="M35 357q0 379 465 379t465 -379t-465 -379t-465 379zM287 357q0 -109 59 -166q55 -53 154 -53t155 53q58 57 58 166t-57 164t-156 55t-154 -54q-59 -57 -59 -165zM374 776l91 140h258l-149 -140h-200z" />
    <glyph glyph-name="Ocircumflex" unicode="&#xd4;" horiz-adv-x="1000" 
d="M35 357q0 379 465 379t465 -379t-465 -379t-465 379zM287 357q0 -109 59 -166q55 -53 154 -53t155 53q58 57 58 166t-57 164t-156 55t-154 -54q-59 -57 -59 -165zM203 776l149 140h296l149 -140h-234l-71 77l-71 -77h-218z" />
    <glyph glyph-name="Otilde" unicode="&#xd5;" horiz-adv-x="1000" 
d="M35 357q0 379 465 379t465 -379t-465 -379t-465 379zM287 357q0 -109 59 -166q55 -53 154 -53t155 53q58 57 58 166t-57 164t-156 55t-154 -54q-59 -57 -59 -165zM328 771v0h-96q34 145 162 145q28 0 71 -9l139 -29q24 -5 28 -5q29 0 43 35h93q-19 -148 -141 -148
q-38 0 -193 35q-53 12 -60 12q-36 0 -46 -36z" />
    <glyph glyph-name="Odieresis" unicode="&#xd6;" horiz-adv-x="1000" 
d="M35 357q0 379 465 379t465 -379t-465 -379t-465 379zM287 357q0 -109 59 -166q55 -53 154 -53t155 53q58 57 58 166t-57 164t-156 55t-154 -54q-59 -57 -59 -165zM241 767v128h212v-128h-212zM547 767v128h212v-128h-212z" />
    <glyph glyph-name="multiply" unicode="&#xd7;" horiz-adv-x="600" 
d="M201 253l-143 143l99 99l143 -143l143 143l99 -99l-143 -143l143 -143l-99 -99l-143 143l-143 -143l-99 99z" />
    <glyph glyph-name="Oslash" unicode="&#xd8;" horiz-adv-x="1000" 
d="M307 250l341 277q-53 49 -148 49q-99 0 -154 -54q-59 -57 -59 -165q0 -62 20 -107zM693 464l-341 -277q53 -49 148 -49q99 0 155 53q58 57 58 166q0 62 -20 107zM31 26l91 74q-87 93 -87 257q0 379 465 379q203 0 316 -72l105 85l48 -61l-91 -74q87 -93 87 -257
q0 -379 -465 -379q-202 0 -316 72l-105 -85z" />
    <glyph glyph-name="Ugrave" unicode="&#xd9;" horiz-adv-x="926" 
d="M62 252v462h238v-423q0 -84 41 -120q37 -33 122 -33t122 33q41 36 41 120v423h238v-462q0 -274 -401 -274t-401 274zM389 776l-149 140h258l91 -140h-200z" />
    <glyph glyph-name="Uacute" unicode="&#xda;" horiz-adv-x="926" 
d="M62 252v462h238v-423q0 -84 41 -120q37 -33 122 -33t122 33q41 36 41 120v423h238v-462q0 -274 -401 -274t-401 274zM337 776l91 140h258l-149 -140h-200z" />
    <glyph glyph-name="Ucircumflex" unicode="&#xdb;" horiz-adv-x="926" 
d="M62 252v462h238v-423q0 -84 41 -120q37 -33 122 -33t122 33q41 36 41 120v423h238v-462q0 -274 -401 -274t-401 274zM166 776l149 140h296l149 -140h-234l-71 77l-71 -77h-218z" />
    <glyph glyph-name="Udieresis" unicode="&#xdc;" horiz-adv-x="926" 
d="M62 252v462h238v-423q0 -84 41 -120q37 -33 122 -33t122 33q41 36 41 120v423h238v-462q0 -274 -401 -274t-401 274zM204 767v128h212v-128h-212zM510 767v128h212v-128h-212z" />
    <glyph glyph-name="Yacute" unicode="&#xdd;" 
d="M288 0v225l-317 489h276l160 -303l160 303h276l-317 -489v-225h-238zM281 776l91 140h258l-149 -140h-200z" />
    <glyph glyph-name="Thorn" unicode="&#xde;" horiz-adv-x="889" 
d="M310 466v-180h212q95 0 95 90t-95 90h-212zM72 0v714h238v-100h290q263 0 263 -238q0 -101 -54 -163q-65 -75 -198 -75h-301v-138h-238z" />
    <glyph glyph-name="germandbls" unicode="&#xdf;" horiz-adv-x="833" 
d="M63 0v490q0 116 72 174q86 68 283 68q335 0 335 -192q0 -58 -31 -92q-26 -29 -68 -36v-2q63 -11 100 -57q42 -51 42 -137q0 -110 -83 -170q-79 -58 -213 -58q-96 0 -163 19v148q59 -13 108 -13q127 0 127 99q0 89 -150 89h-66v122h51q116 0 116 63q0 69 -109 69
q-83 0 -114 -37q-25 -29 -25 -100v-447h-212z" />
    <glyph glyph-name="agrave" unicode="&#xe0;" 
d="M276 372h-212q14 110 115 152q75 32 224 32q166 0 246 -35q99 -43 99 -149v-274q0 -58 22 -98h-212q-9 21 -11 50q-76 -72 -255 -72q-265 0 -265 169q0 89 60 131q55 38 174 46l211 14q33 2 45 8q19 9 19 36q0 58 -134 58q-111 0 -126 -68zM542 220v33q-28 -9 -81 -15
l-143 -17q-61 -7 -61 -55q0 -66 95 -66q91 0 140.5 32t49.5 88zM333 604l-149 140h258l91 -140h-200z" />
    <glyph glyph-name="aacute" unicode="&#xe1;" 
d="M276 372h-212q14 110 115 152q75 32 224 32q166 0 246 -35q99 -43 99 -149v-274q0 -58 22 -98h-212q-9 21 -11 50q-76 -72 -255 -72q-265 0 -265 169q0 89 60 131q55 38 174 46l211 14q33 2 45 8q19 9 19 36q0 58 -134 58q-111 0 -126 -68zM542 220v33q-28 -9 -81 -15
l-143 -17q-61 -7 -61 -55q0 -66 95 -66q91 0 140.5 32t49.5 88zM281 604l91 140h258l-149 -140h-200z" />
    <glyph glyph-name="acircumflex" unicode="&#xe2;" 
d="M276 372h-212q14 110 115 152q75 32 224 32q166 0 246 -35q99 -43 99 -149v-274q0 -58 22 -98h-212q-9 21 -11 50q-76 -72 -255 -72q-265 0 -265 169q0 89 60 131q55 38 174 46l211 14q33 2 45 8q19 9 19 36q0 58 -134 58q-111 0 -126 -68zM542 220v33q-28 -9 -81 -15
l-143 -17q-61 -7 -61 -55q0 -66 95 -66q91 0 140.5 32t49.5 88zM110 604l149 140h296l149 -140h-234l-71 77l-71 -77h-218z" />
    <glyph glyph-name="atilde" unicode="&#xe3;" 
d="M276 372h-212q14 110 115 152q75 32 224 32q166 0 246 -35q99 -43 99 -149v-274q0 -58 22 -98h-212q-9 21 -11 50q-76 -72 -255 -72q-265 0 -265 169q0 89 60 131q55 38 174 46l211 14q33 2 45 8q19 9 19 36q0 58 -134 58q-111 0 -126 -68zM542 220v33q-28 -9 -81 -15
l-143 -17q-61 -7 -61 -55q0 -66 95 -66q91 0 140.5 32t49.5 88zM235 599v0h-96q34 145 162 145q28 0 71 -9l139 -29q24 -5 28 -5q29 0 43 35h93q-19 -148 -141 -148q-38 0 -193 35q-53 12 -60 12q-36 0 -46 -36z" />
    <glyph glyph-name="adieresis" unicode="&#xe4;" 
d="M276 372h-212q14 110 115 152q75 32 224 32q166 0 246 -35q99 -43 99 -149v-274q0 -58 22 -98h-212q-9 21 -11 50q-76 -72 -255 -72q-265 0 -265 169q0 89 60 131q55 38 174 46l211 14q33 2 45 8q19 9 19 36q0 58 -134 58q-111 0 -126 -68zM542 220v33q-28 -9 -81 -15
l-143 -17q-61 -7 -61 -55q0 -66 95 -66q91 0 140.5 32t49.5 88zM148 595v128h212v-128h-212zM454 595v128h212v-128h-212z" />
    <glyph glyph-name="aring" unicode="&#xe5;" 
d="M276 372h-212q14 110 115 152q75 32 224 32q166 0 246 -35q99 -43 99 -149v-274q0 -58 22 -98h-212q-9 21 -11 50q-76 -72 -255 -72q-265 0 -265 169q0 89 60 131q55 38 174 46l211 14q33 2 45 8q19 9 19 36q0 58 -134 58q-111 0 -126 -68zM542 220v33q-28 -9 -81 -15
l-143 -17q-61 -7 -61 -55q0 -66 95 -66q91 0 140.5 32t49.5 88zM285 720q0 55 38.5 93.5t93.5 38.5t93.5 -38.5t38.5 -93.5t-38.5 -93.5t-93.5 -38.5t-93.5 38.5t-38.5 93.5zM359 720q0 -24 17 -41t41 -17t41 17t17 41t-17 41t-41 17t-41 -17t-17 -41z" />
    <glyph glyph-name="ae" unicode="&#xe6;" horiz-adv-x="1167" 
d="M266 372h-202q20 118 122 162q68 30 199 30q152 0 221 -62q29 29 85 45.5t115 16.5q166 0 250 -86q79 -82 79 -231v-26h-463q12 -121 138 -121q81 0 112 60h206q-62 -182 -303 -182q-167 0 -239 87q-80 -87 -276 -87q-135 0 -202 38q-76 43 -76 140q0 79 55.5 118
t182.5 48q55 4 166 11q60 4 60 47q0 62 -109 62q-57 0 -85 -14q-32 -16 -36 -56zM672 325h271q-20 117 -137 117q-114 0 -134 -117zM498 218v30q-25 -13 -89 -19q-47 -4 -95 -8q-70 -9 -70 -60q0 -61 95 -61q159 0 159 118z" />
    <glyph glyph-name="ccedilla" unicode="&#xe7;" 
d="M563 221h224q-24 -118 -107 -177q-88 -63 -254 -65l-23 -37q22 2 43 2q36 0 65 -18q34 -22 34 -61q0 -88 -140 -88q-75 0 -146 19l18 51q49 -14 81 -14q47 0 47 31q0 25 -39 25q-15 0 -36 -7l-25 20l53 79q-326 19 -326 290q0 144 103 220q98 73 277 73q339 0 365 -233
h-218q-16 93 -144 93q-75 0 -117 -40t-42 -113t41.5 -113t118.5 -40q126 0 147 103z" />
    <glyph glyph-name="egrave" unicode="&#xe8;" 
d="M250 331h314q-22 111 -157 111t-157 -111zM548 161h224q-22 -77 -103 -125q-97 -58 -257 -58q-380 0 -380 294q0 141 103 218q98 74 271 74q179 0 275 -79q101 -83 101 -248v-16h-532q19 -121 170 -121q80 0 128 61zM333 604l-149 140h258l91 -140h-200z" />
    <glyph glyph-name="eacute" unicode="&#xe9;" 
d="M250 331h314q-22 111 -157 111t-157 -111zM548 161h224q-22 -77 -103 -125q-97 -58 -257 -58q-380 0 -380 294q0 141 103 218q98 74 271 74q179 0 275 -79q101 -83 101 -248v-16h-532q19 -121 170 -121q80 0 128 61zM281 604l91 140h258l-149 -140h-200z" />
    <glyph glyph-name="ecircumflex" unicode="&#xea;" 
d="M250 331h314q-22 111 -157 111t-157 -111zM548 161h224q-22 -77 -103 -125q-97 -58 -257 -58q-380 0 -380 294q0 141 103 218q98 74 271 74q179 0 275 -79q101 -83 101 -248v-16h-532q19 -121 170 -121q80 0 128 61zM110 604l149 140h296l149 -140h-234l-71 77l-71 -77
h-218z" />
    <glyph glyph-name="edieresis" unicode="&#xeb;" 
d="M250 331h314q-22 111 -157 111t-157 -111zM548 161h224q-22 -77 -103 -125q-97 -58 -257 -58q-380 0 -380 294q0 141 103 218q98 74 271 74q179 0 275 -79q101 -83 101 -248v-16h-532q19 -121 170 -121q80 0 128 61zM148 595v128h212v-128h-212zM454 595v128h212v-128
h-212z" />
    <glyph glyph-name="igrave" unicode="&#xec;" horiz-adv-x="332" 
d="M60 0v542h212v-542h-212zM92 604l-149 140h258l91 -140h-200z" />
    <glyph glyph-name="iacute" unicode="&#xed;" horiz-adv-x="332" 
d="M60 0v542h212v-542h-212zM40 604l91 140h258l-149 -140h-200z" />
    <glyph glyph-name="icircumflex" unicode="&#xee;" horiz-adv-x="332" 
d="M60 0v542h212v-542h-212zM-131 604l149 140h296l149 -140h-234l-71 77l-71 -77h-218z" />
    <glyph glyph-name="idieresis" unicode="&#xef;" horiz-adv-x="332" 
d="M60 0v542h212v-542h-212zM-93 595v128h212v-128h-212zM213 595v128h212v-128h-212z" />
    <glyph glyph-name="eth" unicode="&#xf0;" 
d="M251 241q0 -123 156 -123t156 123t-156 123t-156 -123zM142 580l117 51q-49 17 -107 33l112 111q102 -16 195 -55l121 53l74 -48l-107 -47q240 -140 240 -390q0 -310 -380 -310q-184 0 -282 69t-98 204q0 122 98 191q86 62 217 62q106 0 168 -42l2 2q-45 75 -158 128
l-146 -64z" />
    <glyph glyph-name="ntilde" unicode="&#xf1;" horiz-adv-x="778" 
d="M56 0v542h206v-78h2q75 92 228 92q104 0 165 -49q65 -52 65 -150v-357h-212v293q0 103 -110 103q-59 0 -94 -32q-38 -34 -38 -98v-266h-212zM217 599v0h-96q34 145 162 145q28 0 71 -9l139 -29q24 -5 28 -5q29 0 43 35h93q-19 -148 -141 -148q-38 0 -193 35
q-53 12 -60 12q-36 0 -46 -36z" />
    <glyph glyph-name="ograve" unicode="&#xf2;" 
d="M407 424q-73 0 -114.5 -39t-41.5 -114t41.5 -114t114.5 -39q74 0 115 39t41 114t-41 114t-115 39zM27 271q0 143 98 218t282 75t282 -75t98 -218t-98 -218t-282 -75t-282 75t-98 218zM333 604l-149 140h258l91 -140h-200z" />
    <glyph glyph-name="oacute" unicode="&#xf3;" 
d="M407 424q-73 0 -114.5 -39t-41.5 -114t41.5 -114t114.5 -39q74 0 115 39t41 114t-41 114t-115 39zM27 271q0 143 98 218t282 75t282 -75t98 -218t-98 -218t-282 -75t-282 75t-98 218zM281 604l91 140h258l-149 -140h-200z" />
    <glyph glyph-name="ocircumflex" unicode="&#xf4;" 
d="M407 424q-73 0 -114.5 -39t-41.5 -114t41.5 -114t114.5 -39q74 0 115 39t41 114t-41 114t-115 39zM27 271q0 143 98 218t282 75t282 -75t98 -218t-98 -218t-282 -75t-282 75t-98 218zM110 604l149 140h296l149 -140h-234l-71 77l-71 -77h-218z" />
    <glyph glyph-name="otilde" unicode="&#xf5;" 
d="M407 424q-73 0 -114.5 -39t-41.5 -114t41.5 -114t114.5 -39q74 0 115 39t41 114t-41 114t-115 39zM27 271q0 143 98 218t282 75t282 -75t98 -218t-98 -218t-282 -75t-282 75t-98 218zM235 599v0h-96q34 145 162 145q28 0 71 -9l139 -29q24 -5 28 -5q29 0 43 35h93
q-19 -148 -141 -148q-38 0 -193 35q-53 12 -60 12q-36 0 -46 -36z" />
    <glyph glyph-name="odieresis" unicode="&#xf6;" 
d="M407 424q-73 0 -114.5 -39t-41.5 -114t41.5 -114t114.5 -39q74 0 115 39t41 114t-41 114t-115 39zM27 271q0 143 98 218t282 75t282 -75t98 -218t-98 -218t-282 -75t-282 75t-98 218zM148 595v128h212v-128h-212zM454 595v128h212v-128h-212z" />
    <glyph glyph-name="divide" unicode="&#xf7;" horiz-adv-x="600" 
d="M47 183v140h506v-140h-506zM201 465q0 41 29 70t70 29t70 -29t29 -70t-29 -70t-70 -29t-70 29t-29 70zM201 41q0 41 29 70t70 29t70 -29t29 -70t-29 -70t-70 -29t-70 29t-29 70z" />
    <glyph glyph-name="oslash" unicode="&#xf8;" 
d="M20 15l79 61q-72 74 -72 195q0 143 98 218t282 75q160 0 254 -56l93 72l40 -53l-79 -61q72 -72 72 -195q0 -143 -98 -218t-282 -75q-162 0 -254 56l-93 -72zM263 202l248 191q-38 31 -104 31q-73 0 -114.5 -39t-41.5 -114q0 -40 12 -69zM551 340l-248 -191
q38 -31 104 -31q74 0 115 39t41 114q0 41 -12 69z" />
    <glyph glyph-name="ugrave" unicode="&#xf9;" horiz-adv-x="778" 
d="M56 197v345h212v-280q0 -124 110 -124q59 0 95.5 33t36.5 97v274h212v-542h-206v70h-2q-75 -92 -228 -92q-230 0 -230 219zM315 604l-149 140h258l91 -140h-200z" />
    <glyph glyph-name="uacute" unicode="&#xfa;" horiz-adv-x="778" 
d="M56 197v345h212v-280q0 -124 110 -124q59 0 95.5 33t36.5 97v274h212v-542h-206v70h-2q-75 -92 -228 -92q-230 0 -230 219zM263 604l91 140h258l-149 -140h-200z" />
    <glyph glyph-name="ucircumflex" unicode="&#xfb;" horiz-adv-x="778" 
d="M56 197v345h212v-280q0 -124 110 -124q59 0 95.5 33t36.5 97v274h212v-542h-206v70h-2q-75 -92 -228 -92q-230 0 -230 219zM92 604l149 140h296l149 -140h-234l-71 77l-71 -77h-218z" />
    <glyph glyph-name="udieresis" unicode="&#xfc;" horiz-adv-x="778" 
d="M56 197v345h212v-280q0 -124 110 -124q59 0 95.5 33t36.5 97v274h212v-542h-206v70h-2q-75 -92 -228 -92q-230 0 -230 219zM130 595v128h212v-128h-212zM436 595v128h212v-128h-212z" />
    <glyph glyph-name="yacute" unicode="&#xfd;" horiz-adv-x="685" 
d="M64 -190v134h51q78 0 97 39l24 48l-255 511h230l137 -322l132 322h224l-288 -610q-33 -70 -67 -95q-44 -33 -136 -33q-67 0 -149 6zM217 604l91 140h258l-149 -140h-200z" />
    <glyph glyph-name="thorn" unicode="&#xfe;" 
d="M56 -196v928h212v-262h2q26 44 97 67q55 19 112 19q134 0 217 -71q91 -77 91 -218q0 -130 -91 -211q-87 -78 -217 -78q-140 0 -209 71h-2v-245h-212zM268 270q0 -64 39 -101t112 -37q150 0 150 138t-150 138q-73 0 -112 -37t-39 -101z" />
    <glyph glyph-name="ydieresis" unicode="&#xff;" horiz-adv-x="685" 
d="M64 -190v134h51q78 0 97 39l24 48l-255 511h230l137 -322l132 322h224l-288 -610q-33 -70 -67 -95q-44 -33 -136 -33q-67 0 -149 6zM84 595v128h212v-128h-212zM390 595v128h212v-128h-212z" />
    <glyph glyph-name="OE" unicode="&#x152;" horiz-adv-x="1167" 
d="M573 258v214q0 42 -42.5 76t-97.5 34q-160 0 -160 -225t160 -225q62 0 103 42q37 38 37 84zM574 0v48q-79 -70 -200 -70q-153 0 -244 98q-95 102 -95 281q0 180 95 281q93 98 250 98q131 0 194 -70v48h559v-154h-354v-129h341v-148h-341v-129h360v-154h-565z" />
    <glyph glyph-name="oe" unicode="&#x153;" horiz-adv-x="1167" 
d="M922 160h206q-62 -182 -303 -182q-167 0 -238 82q-89 -82 -229 -82q-163 0 -248 79q-83 76 -83 214t84 215.5t247 77.5q144 0 230 -72q72 72 218 72q166 0 250 -86q79 -82 79 -231v-26h-463q12 -121 138 -121q81 0 112 60zM504 271q0 153 -136 153q-135 0 -135 -153
t135 -153q136 0 136 153zM672 325h271q-20 117 -137 117q-114 0 -134 -117z" />
    <glyph glyph-name="Scaron" unicode="&#x160;" horiz-adv-x="889" 
d="M836 505h-270q-12 83 -155 83q-124 0 -124 -70q0 -35 53 -44q122 -18 313 -49q105 -18 156 -63q57 -50 57 -140q0 -244 -412 -244q-202 0 -301 46q-120 57 -130 196h282q5 -44 36 -64q37 -24 124 -24q125 0 125 75q0 28 -24.5 41t-88.5 23l-238 36q-204 31 -204 202
q0 92 68 149q93 78 303 78q202 0 307 -52q112 -56 123 -179zM297 776l-149 140h234l71 -77l71 77h218l-149 -140h-296z" />
    <glyph glyph-name="scaron" unicode="&#x161;" horiz-adv-x="759" 
d="M27 169h246q9 -63 124 -63q97 0 97 48q0 21 -16 29.5t-57 13.5l-189 23q-187 23 -187 151q0 105 88 152q79 41 241 41q324 0 338 -180h-238q-5 58 -114 58q-97 0 -97 -51q0 -31 68 -38l183 -20q113 -12 165.5 -50.5t52.5 -116.5q0 -188 -347 -188q-352 0 -358 191z
M232 604l-149 140h234l71 -77l71 77h218l-149 -140h-296z" />
    <glyph glyph-name="Ydieresis" unicode="&#x178;" 
d="M288 0v225l-317 489h276l160 -303l160 303h276l-317 -489v-225h-238zM148 767v128h212v-128h-212zM454 767v128h212v-128h-212z" />
    <glyph glyph-name="florin" unicode="&#x192;" horiz-adv-x="888" 
d="M232 295l22 104h114l33 165q29 144 224 144q34 0 134 -7l-24 -130q-54 3 -55 3q-59 0 -70 -56l-24 -119h112l-22 -104h-112l-72 -347q-30 -144 -227 -144q-3 0 -136 7l27 130q48 -3 49 -3q40 0 56 16q20 21 35 96l50 245h-114z" />
    <glyph glyph-name="circumflex" unicode="&#x2c6;" horiz-adv-x="278" 
d="M-158 604l149 140h296l149 -140h-234l-71 77l-71 -77h-218z" />
    <glyph glyph-name="tilde" unicode="&#x2dc;" horiz-adv-x="278" 
d="M-33 599v0h-96q34 145 162 145q28 0 71 -9l139 -29q24 -5 28 -5q29 0 43 35h93q-19 -148 -141 -148q-38 0 -193 35q-53 12 -60 12q-36 0 -46 -36z" />
    <glyph glyph-name="endash" unicode="&#x2013;" horiz-adv-x="500" 
d="M0 220v140h500v-140h-500z" />
    <glyph glyph-name="emdash" unicode="&#x2014;" horiz-adv-x="1000" 
d="M0 220v140h1000v-140h-1000z" />
    <glyph glyph-name="quoteleft" unicode="&#x2018;" horiz-adv-x="388" 
d="M82 320v127q0 247 224 267v-82q-90 -16 -99 -114h99v-198h-224z" />
    <glyph glyph-name="quoteright" unicode="&#x2019;" horiz-adv-x="388" 
d="M82 516v198h224v-127q0 -247 -224 -267v82q90 16 99 114h-99z" />
    <glyph glyph-name="quotesinglbase" unicode="&#x201a;" horiz-adv-x="388" 
d="M82 0v198h224v-127q0 -247 -224 -267v82q90 16 99 114h-99z" />
    <glyph glyph-name="quotedblleft" unicode="&#x201c;" horiz-adv-x="667" 
d="M66 320v127q0 247 224 267v-82q-90 -16 -99 -114h99v-198h-224zM377 320v127q0 247 224 267v-82q-90 -16 -99 -114h99v-198h-224z" />
    <glyph glyph-name="quotedblright" unicode="&#x201d;" horiz-adv-x="667" 
d="M377 516v198h224v-127q0 -247 -224 -267v82q90 16 99 114h-99zM66 516v198h224v-127q0 -247 -224 -267v82q90 16 99 114h-99z" />
    <glyph glyph-name="quotedblbase" unicode="&#x201e;" horiz-adv-x="667" 
d="M377 0v198h224v-127q0 -247 -224 -267v82q90 16 99 114h-99zM66 0v198h224v-127q0 -247 -224 -267v82q90 16 99 114h-99z" />
    <glyph glyph-name="dagger" unicode="&#x2020;" horiz-adv-x="888" 
d="M335 -196v548h-246v154h246v208h218v-208h246v-154h-246v-548h-218z" />
    <glyph glyph-name="daggerdbl" unicode="&#x2021;" horiz-adv-x="888" 
d="M89 -3v140h249v244h-249v140h249v193h212v-193h249v-140h-249v-244h249v-140h-249v-193h-212v193h-249z" />
    <glyph glyph-name="bullet" unicode="&#x2022;" horiz-adv-x="500" 
d="M72 357q0 74 52 126t125 52q74 0 126.5 -52.5t52.5 -126.5q0 -73 -52 -125t-126 -52t-126 52t-52 126z" />
    <glyph glyph-name="ellipsis" unicode="&#x2026;" horiz-adv-x="1000" 
d="M55 0v198h224v-198h-224zM388 0v198h224v-198h-224zM721 0v198h224v-198h-224z" />
    <glyph glyph-name="perthousand" unicode="&#x2030;" horiz-adv-x="1167" 
d="M122 530q0 -104 53 -104q36 0 48 37q7 21 7 67t-7 67q-12 37 -48 37q-53 0 -53 -104zM110 -16l455 724h112l-455 -724h-112zM552 162q0 -104 53 -104q36 0 48 37q7 21 7 67t-7 67q-12 37 -48 37q-53 0 -53 -104zM6 530q0 77 40 125q44 53 130 53q170 0 170 -178
t-170 -178q-86 0 -130 53q-40 48 -40 125zM436 162q0 77 40 125q44 53 130 53q170 0 170 -178t-170 -178q-86 0 -130 53q-40 48 -40 125zM821 162q0 77 40 125q44 53 130 53q170 0 170 -178t-170 -178q-86 0 -130 53q-40 48 -40 125zM937 162q0 -104 53 -104q36 0 48 37
q7 21 7 67t-7 67q-12 37 -48 37q-53 0 -53 -104z" />
    <glyph glyph-name="guilsinglleft" unicode="&#x2039;" horiz-adv-x="388" 
d="M84 202v176l206 152v-148l-122 -92l122 -92v-148z" />
    <glyph glyph-name="guilsinglright" unicode="&#x203a;" horiz-adv-x="388" 
d="M98 50v148l122 92l-122 92v148l206 -152v-176z" />
    <glyph glyph-name="trademark" unicode="&#x2122;" horiz-adv-x="1000" 
d="M114 302v308h-102v104h344v-104h-102v-308h-140zM830 302v258h-2l-89 -258h-88l-89 258h-2v-258h-128v412h174l89 -219l89 219h174v-412h-128z" />
    <glyph glyph-name="minus" horiz-adv-x="600" 
d="M47 183v140h506v-140h-506z" />
    <glyph glyph-name="fraction" horiz-adv-x="167" 
d="M-200 -16l455 724h112l-455 -724h-112z" />
    <glyph glyph-name="fi" horiz-adv-x="796" 
d="M0 402v140h111v46q0 82 41 116q50 40 187 40q58 0 124 -8v-120h-95q-27 0 -36 -8t-9 -33v-33h140v-140h-140v-402h-212v402h-111zM524 0v542h212v-542h-212zM524 604v128h212v-128h-212z" />
    <glyph glyph-name="fl" horiz-adv-x="796" 
d="M0 402v140h111v46q0 82 41 116q50 40 187 40q58 0 124 -8v-120h-95q-27 0 -36 -8t-9 -33v-33h140v-140h-140v-402h-212v402h-111zM524 0v732h212v-732h-212z" />
    <glyph glyph-name="breve" horiz-adv-x="278" 
d="M-85 744h116q11 -52 108 -52t108 52h116q-12 -88 -76 -125q-52 -31 -148 -31q-101 0 -155 35q-57 37 -69 121z" />
    <glyph glyph-name="dotaccent" horiz-adv-x="278" 
d="M33 595v128h212v-128h-212z" />
    <glyph glyph-name="ring" horiz-adv-x="278" 
d="M7 720q0 55 38.5 93.5t93.5 38.5t93.5 -38.5t38.5 -93.5t-38.5 -93.5t-93.5 -38.5t-93.5 38.5t-38.5 93.5zM81 720q0 -24 17 -41t41 -17t41 17t17 41t-17 41t-41 17t-41 -17t-17 -41z" />
    <glyph glyph-name="hungarumlaut" horiz-adv-x="278" 
d="M-140 604l91 140h258l-149 -140h-200zM165 604l91 140h258l-149 -140h-200z" />
    <glyph glyph-name="ogonek" horiz-adv-x="278" 
d="M223 0h90q-51 -32 -71 -50q-29 -26 -29 -53q0 -41 60 -41q26 0 55 11l5 -56q-54 -19 -132 -19q-128 0 -128 82q0 44 40.5 77t109.5 49z" />
    <glyph glyph-name="caron" horiz-adv-x="278" 
d="M-9 604l-149 140h234l71 -77l71 77h218l-149 -140h-296z" />
    <glyph glyph-name="Lslash" horiz-adv-x="760" 
d="M0 164v160l72 44v346h238v-217l171 105v-160l-171 -105v-171h435v-166h-673v208z" />
    <glyph glyph-name="dotlessi" horiz-adv-x="332" 
d="M60 0v542h212v-542h-212z" />
    <glyph glyph-name="lslash" horiz-adv-x="332" 
d="M60 0v259l-60 -37v140l60 37v333h212v-212l60 36v-140l-60 -36v-380h-212z" />
    </font>
</defs>
</svg>
